<svg width="30" height="30" viewBox="0 0 30 30" fill="none" xmlns="http://www.w3.org/2000/svg">
<path d="M29.1943 13.0486C29.1934 13.0479 29.1927 13.047 29.1921 13.0463L16.9532 0.809097C16.4315 0.287247 15.7379 0 15.0002 0C14.2624 0 13.5688 0.287247 13.0469 0.809097L0.814475 13.0401C0.810354 13.0442 0.806005 13.0486 0.802114 13.0527C-0.269161 14.13 -0.26733 15.878 0.807379 16.9526C1.29838 17.4438 1.94664 17.728 2.63999 17.758C2.66838 17.7608 2.69676 17.7621 2.72537 17.7621H3.21294V26.7677C3.21294 28.55 4.66328 30 6.44577 30H11.234C11.7195 30 12.113 29.6063 12.113 29.1211V22.0605C12.113 21.2473 12.7748 20.5859 13.5881 20.5859H16.4123C17.2256 20.5859 17.8871 21.2473 17.8871 22.0605V29.1211C17.8871 29.6063 18.2806 30 18.7661 30H23.5544C25.3371 30 26.7872 28.55 26.7872 26.7677V17.7621H27.2395C27.977 17.7621 28.6706 17.4749 29.1927 16.9528C30.2686 15.8766 30.269 14.1254 29.1943 13.0486V13.0486ZM27.9496 15.71C27.7598 15.8997 27.5075 16.0043 27.2395 16.0043H25.9082C25.4227 16.0043 25.0292 16.3978 25.0292 16.8832V26.7677C25.0292 27.5807 24.3676 28.2422 23.5544 28.2422H19.6451V22.0605C19.6451 20.2782 18.195 18.828 16.4123 18.828H13.5881C11.8053 18.828 10.355 20.2782 10.355 22.0605V28.2422H6.44577C5.6327 28.2422 4.97093 27.5807 4.97093 26.7677V16.8832C4.97093 16.3978 4.57744 16.0043 4.09194 16.0043H2.78352C2.76978 16.0034 2.75628 16.0027 2.74231 16.0025C2.48044 15.9979 2.23483 15.894 2.05079 15.7098C1.65936 15.3184 1.65936 14.6814 2.05079 14.2898C2.05102 14.2898 2.05102 14.2896 2.05125 14.2893L2.05193 14.2886L14.2903 2.05193C14.4799 1.86218 14.7319 1.75781 15.0002 1.75781C15.2682 1.75781 15.5202 1.86218 15.71 2.05193L27.9457 14.2861C27.9475 14.2879 27.9496 14.2898 27.9514 14.2916C28.3408 14.6837 28.3401 15.3193 27.9496 15.71V15.71Z" 
      fill="white"/>
</svg>
